<?xml version="1.0" encoding="utf-8"?>
<!-- Generator: Adobe Illustrator 26.0.3, SVG Export Plug-In . SVG Version: 6.00 Build 0)  -->
<svg version="1.1" id="Layer_1" xmlns="http://www.w3.org/2000/svg" xmlns:xlink="http://www.w3.org/1999/xlink" x="0px" y="0px"
	 viewBox="0 0 124.83 124.83" style="enable-background:new 0 0 124.83 124.83;" xml:space="preserve">
<style type="text/css">
	.st0{stroke:#000000;stroke-width:0.5;stroke-miterlimit:10;}
</style>
<path class="st0" d="M45.97,27.03c-0.41,0-0.62-0.07-0.62-0.2v-0.61l0.62-2.64c0.27-1.08,0.44-2.24,0.51-3.46
	c0.07-1.22,0.17-2.44,0.31-3.66c0-0.81-0.04-1.66-0.1-2.54c-0.07-0.88-0.1-1.73-0.1-2.54c-0.28-1.63-0.75-2.98-1.44-4.07
	c-0.28-0.81-0.62-1.35-1.03-1.63c-0.96-0.68-1.78-0.95-2.46-0.81c-1.51,0-2.88,0.41-4.11,1.22c-0.82,0.41-1.58,0.81-2.26,1.22
	c-0.69,0.41-1.37,0.95-2.05,1.63l-4.31,4.47c-1.51,1.9-2.87,3.76-4.11,5.59c-1.23,1.83-2.4,3.83-3.49,6
	c-0.69,1.09-1.33,2.2-1.95,3.35c-0.62,1.15-1.27,2.41-1.95,3.76c-0.69,1.49-1.37,3.05-2.05,4.68c-0.69,1.63-1.3,3.32-1.85,5.08
	c-0.55,1.49-1.06,2.98-1.54,4.47c-0.48,1.49-0.86,2.98-1.13,4.47c-0.69,2.44-1.3,4.98-1.85,7.62c-0.55,2.64-1.03,5.32-1.44,8.03
	c-0.14,1.49-0.28,2.92-0.41,4.27c-0.14,1.36-0.21,2.71-0.21,4.07c-0.14,1.22-0.21,2.44-0.21,3.66c0,1.22,0,2.44,0,3.66l0.41,2.85
	l0.41,5.08l0.82,4.07l0.82,3.86c0.27,0.54,0.51,1.09,0.72,1.63c0.21,0.54,0.38,1.15,0.51,1.83c0.27,0.95,0.65,1.86,1.13,2.75
	c0.48,0.88,0.92,1.8,1.33,2.74l2.67,4.07c0.55,0.54,1.06,1.05,1.54,1.52c0.48,0.47,1.06,0.92,1.75,1.32
	c1.09,1.08,2.26,1.69,3.49,1.83c1.5,0.68,3.21,0.68,5.13,0c0.96-0.41,1.85-0.88,2.67-1.42c0.82-0.54,1.57-1.15,2.26-1.83
	c2.33-1.76,4.58-3.93,6.78-6.51c1.78-2.03,3.46-4.1,5.03-6.2c1.57-2.1,3.11-4.17,4.62-6.2l8.62-12c0.96-1.49,1.92-2.88,2.87-4.17
	c0.96-1.29,1.85-2.67,2.67-4.17c0.27-0.27,0.51-0.58,0.72-0.92c0.21-0.34,0.44-0.64,0.72-0.91l2.26-3.25l0.41-0.81
	c0.13-0.13,0.27-0.2,0.41-0.2v0.2c0,0.41-0.07,0.68-0.21,0.81c-0.55,0.68-1.03,1.46-1.44,2.34c-0.41,0.88-0.89,1.66-1.44,2.34
	c-0.55,0.81-1.03,1.63-1.44,2.44c-0.41,0.81-0.96,1.63-1.64,2.44l-2.67,4.07c-0.69,0.95-1.33,1.9-1.95,2.85
	c-0.62,0.95-1.27,1.9-1.95,2.85c-0.69,1.09-1.41,2.21-2.16,3.35c-0.75,1.15-1.54,2.27-2.36,3.35c-0.96,1.63-1.99,2.98-3.08,4.07
	c-0.28,0.54-0.55,1.02-0.82,1.42c-0.28,0.41-0.55,0.75-0.82,1.02c-0.96,1.36-1.92,2.64-2.88,3.86c-0.96,1.22-1.99,2.44-3.08,3.66
	c-1.78,2.03-3.7,3.86-5.75,5.49c-0.69,0.41-1.33,0.85-1.95,1.32c-0.62,0.47-1.33,0.84-2.16,1.12c-0.82,0.41-1.68,0.68-2.57,0.81
	c-0.89,0.13-1.75,0.27-2.57,0.41c-2.33,0-4.38-0.48-6.16-1.42c-0.69-0.27-1.27-0.61-1.75-1.02c-0.48-0.41-0.99-0.81-1.54-1.22
	c-0.69-0.68-1.41-1.49-2.16-2.44c-0.75-0.95-1.41-1.9-1.95-2.85c-1.1-1.63-1.95-3.29-2.57-4.98c-0.62-1.69-1.2-3.42-1.75-5.18
	c-0.41-1.35-0.72-2.67-0.92-3.96c-0.21-1.29-0.45-2.67-0.72-4.17l-0.62-4.27c0-1.08-0.04-2.1-0.1-3.05c-0.07-0.95-0.1-1.96-0.1-3.05
	c0-0.68,0.03-1.39,0.1-2.13c0.07-0.74,0.1-1.52,0.1-2.34c0-1.08,0.03-2.13,0.1-3.15C4.66,71.05,4.76,70,4.9,68.91
	c0.27-1.9,0.51-3.76,0.72-5.59c0.21-1.83,0.51-3.69,0.92-5.59c0.55-2.3,1.09-4.47,1.64-6.51c0.55-2.03,1.16-4.13,1.85-6.3
	c0.68-2.03,1.4-4.03,2.16-6c0.75-1.96,1.54-3.89,2.36-5.79c2.19-5.42,5.06-10.71,8.62-15.86c1.09-1.49,2.16-2.88,3.18-4.17
	c1.03-1.29,2.22-2.54,3.59-3.76c0.82-0.81,1.64-1.52,2.46-2.13c0.82-0.61,1.71-1.25,2.67-1.93c1.37-0.81,2.74-1.29,4.11-1.42
	c1.5-0.27,2.88-0.13,4.11,0.41c1.23,0.54,2.26,1.56,3.08,3.05c0.55,0.95,1.09,2.37,1.64,4.27c0.13,0.95,0.17,1.83,0.1,2.64
	c-0.07,0.81-0.17,1.7-0.31,2.64c0,1.36-0.14,2.68-0.41,3.96c-0.28,1.29-0.55,2.61-0.82,3.96c0,0.54-0.07,0.95-0.21,1.22
	C46.38,26.15,46.24,26.49,45.97,27.03z"/>
<path class="st0" d="M80.23,111.15c-0.69,0.13-1.2,0.03-1.54-0.3c-0.34-0.34-0.65-0.65-0.92-0.92l-0.82-1.63
	c-0.28-0.68-0.51-1.32-0.72-1.93c-0.21-0.61-0.45-1.25-0.72-1.93c-0.82-2.98-1.44-6.03-1.85-9.15c-0.28-0.95-0.45-1.83-0.51-2.64
	c-0.07-0.81-0.17-1.69-0.31-2.64l-1.03-7.52c0-0.68-0.04-1.32-0.1-1.93c-0.07-0.61-0.1-1.25-0.1-1.93l-0.41-5.69v-0.2
	c-0.14-0.95-0.21-1.86-0.21-2.75c0-0.88,0-1.86,0-2.95c-0.14-1.63-0.17-3.28-0.1-4.98c0.07-1.69,0.1-3.35,0.1-4.98
	c0-0.27-0.04-0.61-0.1-1.02c-0.07-0.41-0.04-0.74,0.1-1.02c0-1.08,0-2.1,0-3.05c0-0.95,0.07-1.96,0.21-3.05c0-0.95,0-1.83,0-2.64
	c0-0.81,0.07-1.63,0.21-2.44l0.41-4.27v-0.61c0-0.95,0.03-1.86,0.1-2.74c0.07-0.88,0.17-1.79,0.31-2.74l0.62-5.9l0.62-4.27
	l0.62-4.68c0-0.27,0.03-0.54,0.1-0.81c0.07-0.27,0.1-0.54,0.1-0.81l0.41-0.61c0.27-0.54,0.68-0.81,1.23-0.81h1.03
	c0.68,0,1.16,0.34,1.44,1.02L79,17.83c0.27,1.09,0.51,2.13,0.72,3.15s0.44,2.07,0.72,3.15l1.23,6.71l2.26,10.57
	c0.68,2.98,1.47,5.9,2.36,8.74c0.89,2.85,1.88,5.76,2.98,8.74c0.96,2.71,1.98,5.36,3.08,7.93c1.09,2.58,2.26,5.22,3.49,7.93
	c0.68,1.36,1.44,2.71,2.26,4.07c0.82,1.36,1.71,2.71,2.67,4.07c0.68,1.09,1.4,2.1,2.16,3.05c0.75,0.95,1.68,1.83,2.77,2.64
	l2.26,1.83c0.54,0.41,1.23,0.61,2.05,0.61c0.55-0.27,1.03-0.88,1.44-1.83c0.55-1.22,0.96-2.44,1.23-3.66
	c0.27-0.95,0.48-1.9,0.62-2.85c0.13-0.95,0.27-1.9,0.41-2.85l0.62-6.71c0.27-5.15,0.27-10.17,0-15.04c-0.14-0.81-0.17-1.59-0.1-2.34
	c0.07-0.74,0.03-1.52-0.1-2.34c0-0.68-0.04-1.39-0.1-2.13c-0.07-0.74-0.1-1.46-0.1-2.13c-0.14-1.22-0.24-2.44-0.31-3.66
	c-0.07-1.22-0.1-2.44-0.1-3.66l-0.82-8.13c0-0.95-0.04-1.86-0.1-2.74c-0.07-0.88-0.1-1.79-0.1-2.74l-0.41-7.12
	c-0.14-1.08-0.17-2.2-0.1-3.35c0.07-1.15,0.17-2.27,0.31-3.35l0.21-0.2c0-0.27,0.13-0.41,0.41-0.41c0.13,0,0.21,0.07,0.21,0.2v1.42
	l0.41,4.68l0.41,3.46c0,0.41,0.03,0.81,0.1,1.22c0.07,0.41,0.1,0.81,0.1,1.22l0.62,4.88l0.41,2.85l0.62,5.29l0.62,4.68l0.62,4.07
	c0,0.68,0.13,1.7,0.41,3.05l0.62,5.9l0.41,3.86c0.13,1.49,0.21,2.88,0.21,4.17c0,1.29,0,2.61,0,3.96l-0.41,6.91l-0.62,4.88
	c-0.28,1.22-0.51,2.44-0.72,3.66c-0.21,1.22-0.58,2.44-1.13,3.66l-1.44,2.24c-0.82,1.09-2.05,1.97-3.7,2.64
	c-0.14,0-0.28,0.04-0.41,0.1c-0.14,0.07-0.28,0.1-0.41,0.1c-1.64,0.41-3.15,0.34-4.52-0.2c-1.64-0.95-2.95-1.96-3.9-3.05
	c-0.82-0.68-1.54-1.46-2.16-2.34c-0.62-0.88-1.27-1.73-1.95-2.54c-0.96-1.35-1.82-2.67-2.57-3.96c-0.75-1.29-1.47-2.67-2.16-4.17
	c-1.1-1.9-2.05-3.83-2.88-5.79c-0.82-1.96-1.64-3.96-2.46-6c-0.69-1.9-1.33-3.79-1.95-5.69c-0.62-1.9-1.2-3.79-1.75-5.69l-1.85-6.3
	l-1.23-5.29c-0.41-1.63-0.79-3.25-1.13-4.88c-0.34-1.63-0.65-3.25-0.92-4.88c-0.28-1.22-0.51-2.44-0.72-3.66s-0.45-2.44-0.72-3.66
	c0-0.27-0.14-0.95-0.41-2.03c0,0.27-0.04,0.51-0.1,0.71c-0.07,0.2-0.1,0.44-0.1,0.71l-0.62,4.88l-0.41,3.46
	c-0.14,0.54-0.21,1.49-0.21,2.85l-0.82,7.73v0.2c0,0.95-0.04,1.86-0.1,2.74c-0.07,0.88-0.17,1.8-0.31,2.74
	c0,1.09-0.04,2.13-0.1,3.15c-0.07,1.02-0.1,2.07-0.1,3.15c-0.14,0.54-0.21,1.29-0.21,2.24c0,1.9-0.04,3.83-0.1,5.79
	c-0.07,1.97-0.1,3.9-0.1,5.79c0.13,1.49,0.21,2.88,0.21,4.17c0,1.29,0,2.68,0,4.17l0.41,4.68l0.62,6.91c0,0.54,0.03,1.05,0.1,1.53
	c0.07,0.48,0.1,1.05,0.1,1.73l0.41,2.24c0.27,1.49,0.48,2.92,0.62,4.27c0.13,1.36,0.34,2.78,0.62,4.27l1.23,4.27
	c0,0.54,0.07,0.95,0.21,1.22v-0.2c0,0.14,0.03,0.24,0.1,0.3c0.07,0.07,0.1,0.17,0.1,0.31c0.55,0.81,0.89,1.32,1.03,1.52
	C79.13,110.44,79.55,110.74,80.23,111.15z"/>
</svg>
