<?xml version="1.0" encoding="utf-8"?>
<!-- Generator: Adobe Illustrator 27.5.0, SVG Export Plug-In . SVG Version: 6.00 Build 0)  -->
<svg version="1.1" id="Layer_1" xmlns="http://www.w3.org/2000/svg" xmlns:xlink="http://www.w3.org/1999/xlink" x="0px" y="0px"
	 viewBox="0 0 103.1 47.9" style="enable-background:new 0 0 103.1 47.9;" xml:space="preserve">
<style type="text/css">
	.st0{stroke:#000000;stroke-width:0.2;stroke-miterlimit:10;}
	.st1{stroke:#000000;stroke-width:0.1;stroke-miterlimit:10;}
</style>
<g>
	<path shape-rendering="optimizeQuality" class="st0" d="M17.3,11.9c-0.1,0-0.2,0-0.2-0.1v-0.2l0.2-0.9c0.1-0.4,0.1-0.7,0.2-1.1c0-0.4,0.1-0.8,0.1-1.2
		c0-0.3,0-0.5,0-0.8c0-0.3,0-0.6,0-0.8c-0.1-0.5-0.2-1-0.5-1.3C17,5.2,16.9,5,16.7,5c-0.3-0.2-0.6-0.3-0.8-0.3
		c-0.5,0-0.9,0.1-1.3,0.4c-0.3,0.1-0.5,0.3-0.7,0.4c-0.2,0.1-0.4,0.3-0.7,0.5l-1.4,1.5c-0.5,0.6-0.9,1.2-1.3,1.8
		c-0.4,0.6-0.8,1.2-1.1,1.9c-0.2,0.4-0.4,0.7-0.6,1.1c-0.2,0.4-0.4,0.8-0.6,1.2c-0.2,0.5-0.4,1-0.7,1.5c-0.2,0.5-0.4,1.1-0.6,1.6
		c-0.2,0.5-0.3,1-0.5,1.5c-0.2,0.5-0.3,1-0.4,1.5c-0.2,0.8-0.4,1.6-0.6,2.5c-0.2,0.9-0.3,1.7-0.5,2.6c0,0.5-0.1,0.9-0.1,1.4
		c0,0.4-0.1,0.9-0.1,1.3c0,0.4-0.1,0.8-0.1,1.2s0,0.8,0,1.2l0.1,0.9L5,32.3l0.3,1.3l0.3,1.3c0.1,0.2,0.2,0.4,0.2,0.5
		c0.1,0.2,0.1,0.4,0.2,0.6c0.1,0.3,0.2,0.6,0.4,0.9c0.2,0.3,0.3,0.6,0.4,0.9l0.9,1.3c0.2,0.2,0.3,0.3,0.5,0.5
		c0.2,0.2,0.3,0.3,0.6,0.4c0.4,0.4,0.7,0.5,1.1,0.6c0.5,0.2,1,0.2,1.7,0c0.3-0.1,0.6-0.3,0.9-0.5c0.3-0.2,0.5-0.4,0.7-0.6
		c0.7-0.6,1.5-1.3,2.2-2.1c0.6-0.7,1.1-1.3,1.6-2c0.5-0.7,1-1.4,1.5-2l2.8-3.9c0.3-0.5,0.6-0.9,0.9-1.4c0.3-0.4,0.6-0.9,0.9-1.4
		c0.1-0.1,0.2-0.2,0.2-0.3c0.1-0.1,0.1-0.2,0.2-0.3l0.7-1.1l0.1-0.3c0,0,0.1-0.1,0.1-0.1V25c0,0.1,0,0.2-0.1,0.3
		c-0.2,0.2-0.3,0.5-0.5,0.8c-0.1,0.3-0.3,0.5-0.5,0.8c-0.2,0.3-0.3,0.5-0.5,0.8c-0.1,0.3-0.3,0.5-0.5,0.8l-0.9,1.3
		c-0.2,0.3-0.4,0.6-0.6,0.9c-0.2,0.3-0.4,0.6-0.6,0.9c-0.2,0.4-0.5,0.7-0.7,1.1c-0.2,0.4-0.5,0.7-0.8,1.1c-0.3,0.5-0.6,1-1,1.3
		c-0.1,0.2-0.2,0.3-0.3,0.5c-0.1,0.1-0.2,0.2-0.3,0.3c-0.3,0.4-0.6,0.9-0.9,1.3c-0.3,0.4-0.6,0.8-1,1.2c-0.6,0.7-1.2,1.3-1.8,1.8
		c-0.2,0.1-0.4,0.3-0.6,0.4c-0.2,0.2-0.4,0.3-0.7,0.4c-0.3,0.1-0.5,0.2-0.8,0.3c-0.3,0-0.6,0.1-0.8,0.1c-0.7,0-1.4-0.2-2-0.5
		c-0.2-0.1-0.4-0.2-0.6-0.3c-0.2-0.1-0.3-0.3-0.5-0.4c-0.2-0.2-0.5-0.5-0.7-0.8c-0.2-0.3-0.5-0.6-0.6-0.9c-0.4-0.5-0.6-1.1-0.8-1.6
		c-0.2-0.5-0.4-1.1-0.6-1.7c-0.1-0.4-0.2-0.9-0.3-1.3c-0.1-0.4-0.1-0.9-0.2-1.4L4,31c0-0.4,0-0.7,0-1c0-0.3,0-0.6,0-1
		c0-0.2,0-0.5,0-0.7c0-0.2,0-0.5,0-0.8c0-0.4,0-0.7,0-1c0-0.3,0.1-0.7,0.1-1c0.1-0.6,0.2-1.2,0.2-1.8c0.1-0.6,0.2-1.2,0.3-1.8
		c0.2-0.7,0.4-1.5,0.5-2.1c0.2-0.7,0.4-1.3,0.6-2C6,17,6.2,16.4,6.5,15.7c0.2-0.6,0.5-1.3,0.8-1.9c0.7-1.8,1.6-3.5,2.8-5.1
		c0.4-0.5,0.7-0.9,1-1.4c0.3-0.4,0.7-0.8,1.2-1.2c0.3-0.3,0.5-0.5,0.8-0.7c0.3-0.2,0.5-0.4,0.9-0.6c0.4-0.3,0.9-0.4,1.3-0.5
		c0.5-0.1,0.9,0,1.3,0.1c0.4,0.2,0.7,0.5,1,1c0.2,0.3,0.4,0.8,0.5,1.4c0,0.3,0.1,0.6,0,0.9C18,8,18,8.3,17.9,8.6
		c0,0.4,0,0.9-0.1,1.3c-0.1,0.4-0.2,0.8-0.3,1.3c0,0.2,0,0.3-0.1,0.4C17.4,11.6,17.4,11.7,17.3,11.9z"/>
	<path shape-rendering="optimizeQuality" class="st1" d="M26.8,24.9c0.3,0,0.5,0,0.8-0.1c0.3,0,0.5,0,0.9,0.1c-0.1,0-0.2,0.1-0.3,0.1c-0.1,0-0.2,0-0.3,0.1
		c-0.1,0-0.3,0-0.6,0.1c-0.1,0-0.2,0-0.3,0c-0.1,0-0.2,0-0.3,0c-0.1,0.1-0.2,0.2-0.2,0.3c-0.1,0.2-0.2,0.4-0.3,0.7
		c-0.1,0.2-0.3,0.4-0.4,0.7c-0.2,0.3-0.4,0.5-0.7,0.6c-0.3,0.1-0.6,0.2-0.7,0.1c-0.4-0.1-0.6-0.4-0.6-0.9c0-0.3,0.1-0.6,0.3-0.9
		l0.2-0.4c0-0.1,0-0.2,0-0.2c0-0.1,0-0.1,0-0.2c0-0.3,0.1-0.5,0.2-0.6c0.1-0.4,0.3-0.8,0.6-1.1c0.1-0.1,0.4-0.3,0.7-0.5
		c0.4-0.1,0.7,0,0.9,0.2c0.2,0.2,0.3,0.4,0.3,0.5c0,0.4,0,0.7,0,1C26.8,24.5,26.8,24.7,26.8,24.9z M24.9,25.5
		c-0.2,0.4-0.4,0.8-0.5,1.1c0,0.2,0,0.4,0.1,0.5h0.1l0.4-0.4c0.3-0.3,0.5-0.6,0.7-1.1v-0.2c-0.1,0-0.3,0-0.4,0
		C25.2,25.5,25,25.5,24.9,25.5z M26.3,23c-0.1,0-0.3,0-0.4,0c-0.1,0-0.3,0.2-0.5,0.3c-0.4,0.4-0.7,0.9-0.8,1.5c0,0.1,0,0.2,0.1,0.2
		c0.2,0,0.4,0.1,0.5,0.3c0.1,0,0.3-0.1,0.4-0.1c0.1,0,0.3,0,0.4-0.1c0.2-0.5,0.4-1,0.4-1.5C26.5,23.3,26.5,23.1,26.3,23z"/>
	<path shape-rendering="optimizeQuality" class="st1" d="M29.7,14.1c0,0.2-0.1,0.3-0.1,0.5l-0.1,0.1c0,0.2-0.1,0.4,0,0.5l-0.1,0.1c0,0.1-0.1,0.4-0.1,0.7l-0.1,0.1
		c0,0.4,0,0.7-0.1,0.9l-0.1,1.1c0,0.1,0,0.2,0,0.2c-0.1,0.3,0,0.7-0.1,0.9c0.1,0.4-0.1,0.7,0,1.1c-0.1,0.2-0.1,0.7-0.1,1
		c-0.1,0.5-0.1,1-0.1,1.6c-0.1,0.4-0.1,0.9-0.1,1.4c0,0.4-0.1,1.9,0.1,2.2c-0.1,0.2-0.1,0.4,0,0.5c0,0.4,0,0.8,0.1,1
		c0,0.4,0,0.7,0.1,0.9v0.3l0.1,0.5c0.1,0.6,0.1,1.1,0.3,1.6c0.1,0.4,0.3,0.8,0.5,1.1c0.1,0.1,0.2,0.2,0.5,0.3c0.2,0,0.4-0.2,0.6-0.3
		c0.2-0.1,0.4-0.4,0.7-0.7c0.4-0.6,0.8-1.3,1.2-2.1c0.4-0.8,0.7-1.8,1.1-2.8c0-0.2,0.1-0.3,0.3-0.5l-0.1-0.1
		c0.2-0.3,0.1-0.5,0.2-0.8c0.1-0.3,0.1-0.5,0.1-0.7h0.1c0.2,0.3,0,0.9-0.1,1.3v0.4c-0.2,0.3-0.1,0.4-0.2,0.7l-0.2,0.7
		c0,0.2-0.1,0.4-0.2,0.6c-0.1,0.5-0.2,0.7-0.3,1.2c0,0.1-0.1,0.1-0.1,0.2c-0.1,0.1-0.2,0.3-0.3,0.6c-0.2,0.5-0.4,0.8-0.7,1.2
		c0,0.1-0.1,0.1-0.1,0.2c-0.1,0.1-0.1,0.2-0.1,0.2L32,32.2c-0.1,0.2-0.4,0.4-0.7,0.7c-0.5,0.3-1.5,0.4-2-0.3
		c-0.2-0.2-0.2-0.5-0.4-0.7c-0.2-0.5-0.4-1-0.4-1.5c-0.2-0.7-0.2-1.6-0.3-2.3c-0.2-2.3-0.1-4.6,0.1-6.9c0.1-0.9,0.1-1.8,0.3-2.6
		l0.2-2l0.3-2c0.2-1.2,0.4-2.4,0.8-3.6l0.3-0.8l0.1-0.3c0-0.3,0.2-0.5,0.5-0.9c0.3-0.1,0.5,0,0.7,0.1c0.1,0.4,0.2,0.7,0.2,1
		c0.1,0.3,0.1,0.6,0,0.9l-0.1,0.1c0.1,0.1,0.1,0.3,0,0.6c0,0.3,0,0.5-0.1,0.6c0,0.1-0.1,0.2-0.1,0.5c-0.1,0.4,0,0.6-0.2,0.9v0.2
		c-0.1,0.4-0.1,0.6-0.1,0.7l-0.1,0.6c-0.1,0.2-0.1,0.3-0.1,0.4c0,0-0.1,0-0.1,0.1V16c0,0-0.1,0.2-0.1,0.3c-0.1,0.2,0,0.2-0.1,0.3
		c0,0.1-0.1,0.2-0.1,0.3c-0.2,0.1-0.1,0.3-0.1,0.5L30.4,18l-0.2,0.9c-0.1,0.5-0.3,0.9-0.5,1.3l-0.4,1.1l-0.1,0.3
		c0,0-0.1,0.1-0.1,0.1c0,0,0-0.1-0.1-0.1c0-0.1,0-0.2,0.1-0.3c0.2-0.5,0.3-1.1,0.5-1.5l1.2-4.3l0.5-2.4l0.3-1.6c0-0.6,0-1.1,0-1.6
		c-0.1-0.2,0-0.4-0.2-0.5l-0.1-0.1l-0.3,0.3l-0.3,0.7l-0.1,0.4c-0.2,0.4-0.1,0.6-0.3,1.1c0,0,0,0.1,0,0.1c0,0,0,0.1,0,0.2l-0.3,1
		c0,0.2-0.1,0.4-0.1,0.6l-0.1,0.1C29.7,13.8,29.7,14,29.7,14.1z"/>
	<path shape-rendering="optimizeQuality" class="st1" d="M34.3,23.2c0.2-0.1,0.3-0.1,0.4,0c0.1,0.1,0.2,0.1,0.3,0.2c0,0.1,0.1,0.2,0.1,0.3v1.7c0,0.4,0,0.8,0.1,1
		c0,0.2,0,0.3,0.1,0.5c0,0.1,0.1,0.2,0.2,0.3h-0.3c-0.2-0.2-0.3-0.4-0.4-0.7l-0.2-0.8c0-0.3-0.1-0.6-0.1-0.9c0-0.3-0.1-0.6-0.1-0.9
		V23.2z M35.4,20.6c-0.2,0.3-0.3,0.5-0.3,0.6c-0.2-0.1-0.4-0.2-0.5-0.2c-0.2-0.2-0.2-0.4,0-0.5C34.7,20.4,35,20.4,35.4,20.6z"/>
	<path shape-rendering="optimizeQuality" class="st1" d="M40.5,25c-0.4,0.2-0.7,0.2-1.1,0.1c-0.2,0-0.4-0.2-0.5-0.5c-0.1-0.2-0.2-0.4-0.3-0.5c-0.1-0.2-0.1-0.4-0.1-0.5
		c0-0.1-0.1-0.3-0.2-0.6c-0.1-0.3-0.2-0.5-0.3-0.6l-0.1-0.1c-0.2,0.1-0.4,0.3-0.5,0.5c-0.1,0.2-0.2,0.4-0.4,0.6l-0.6,1.3
		c-0.1,0.2-0.2,0.6-0.2,1c-0.1,0.5-0.1,0.8-0.1,1h-0.1c-0.1-0.1-0.1-0.3-0.1-0.6c0-0.3,0-0.5,0-0.6V25c0-1,0-2,0-3.1
		c0-0.4,0.1-0.7,0-0.9c0-0.2,0-0.5,0-0.9c0,0,0-0.1,0-0.1c0,0,0-0.1,0-0.1c0.2-0.1,0.3-0.1,0.5,0.1c0,0.1,0.1,0.3,0.1,0.6
		c0,0.5,0.1,1,0.1,1.3c0,0.4,0,0.8-0.1,1.3c-0.1,0.4-0.1,0.7-0.1,1l0.1-0.4l0.2-0.3c0-0.1,0-0.2,0.1-0.3c0.1-0.1,0.1-0.2,0.2-0.3
		c0.2-0.3,0.3-0.5,0.5-0.6l0.1-0.1c0.3-0.3,0.5-0.2,0.7,0.1c0.1,0.1,0.2,0.3,0.3,0.6c0.1,0.3,0.2,0.5,0.2,0.6l0.3,0.8
		c0,0,0,0.1,0,0.1c0,0,0,0.1,0,0.2c0.1,0.3,0.3,0.5,0.7,0.5L40.5,25L40.5,25z"/>
	<path shape-rendering="optimizeQuality" d="M48.3,38.2c-0.2,0-0.4,0-0.5-0.1c-0.1-0.1-0.2-0.2-0.3-0.3l-0.3-0.5c-0.1-0.2-0.2-0.4-0.2-0.6c-0.1-0.2-0.1-0.4-0.2-0.6
		c-0.3-1-0.5-2-0.6-3c-0.1-0.3-0.1-0.6-0.2-0.9c0-0.3-0.1-0.5-0.1-0.9l-0.3-2.4c0-0.2,0-0.4,0-0.6c0-0.2,0-0.4,0-0.6l-0.1-1.8v-0.1
		c0-0.3-0.1-0.6-0.1-0.9c0-0.3,0-0.6,0-1c0-0.5-0.1-1.1,0-1.6c0-0.5,0-1.1,0-1.6c0-0.1,0-0.2,0-0.3c0-0.1,0-0.2,0-0.3
		c0-0.4,0-0.7,0-1c0-0.3,0-0.6,0.1-1c0-0.3,0-0.6,0-0.9c0-0.3,0-0.5,0.1-0.8l0.1-1.4v-0.2c0-0.3,0-0.6,0-0.9c0-0.3,0.1-0.6,0.1-0.9
		l0.2-1.9l0.2-1.4l0.2-1.5c0-0.1,0-0.2,0-0.3c0-0.1,0-0.2,0-0.3l0.1-0.2c0.1-0.2,0.2-0.3,0.4-0.3h0.3c0.2,0,0.4,0.1,0.5,0.3l0.2,0.4
		c0.1,0.4,0.2,0.7,0.2,1c0.1,0.3,0.1,0.7,0.2,1l0.4,2.2l0.7,3.4c0.2,1,0.5,1.9,0.8,2.8c0.3,0.9,0.6,1.9,1,2.8c0.3,0.9,0.6,1.7,1,2.6
		c0.4,0.8,0.7,1.7,1.1,2.6c0.2,0.4,0.5,0.9,0.7,1.3c0.3,0.4,0.5,0.9,0.9,1.3c0.2,0.4,0.5,0.7,0.7,1c0.2,0.3,0.5,0.6,0.9,0.9l0.7,0.6
		c0.2,0.1,0.4,0.2,0.7,0.2c0.2-0.1,0.3-0.3,0.5-0.6c0.2-0.4,0.3-0.8,0.4-1.2c0.1-0.3,0.2-0.6,0.2-0.9c0-0.3,0.1-0.6,0.1-0.9l0.2-2.2
		c0.1-1.7,0.1-3.3,0-4.9c0-0.3-0.1-0.5,0-0.8c0-0.2,0-0.5,0-0.8c0-0.2,0-0.5,0-0.7c0-0.2,0-0.5,0-0.7c0-0.4-0.1-0.8-0.1-1.2
		c0-0.4,0-0.8,0-1.2l-0.3-2.6c0-0.3,0-0.6,0-0.9c0-0.3,0-0.6,0-0.9L58.5,9c0-0.4-0.1-0.7,0-1.1c0-0.4,0.1-0.7,0.1-1.1l0.1-0.1
		c0-0.1,0-0.1,0.1-0.1c0,0,0.1,0,0.1,0.1v0.5L59,8.7l0.1,1.1c0,0.1,0,0.3,0,0.4c0,0.1,0,0.3,0,0.4l0.2,1.6l0.1,0.9l0.2,1.7l0.2,1.5
		l0.2,1.3c0,0.2,0,0.6,0.1,1l0.2,1.9l0.1,1.3c0,0.5,0.1,0.9,0.1,1.4c0,0.4,0,0.8,0,1.3l-0.1,2.2l-0.2,1.6c-0.1,0.4-0.2,0.8-0.2,1.2
		c-0.1,0.4-0.2,0.8-0.4,1.2l-0.5,0.7c-0.3,0.4-0.7,0.6-1.2,0.9c0,0-0.1,0-0.1,0c0,0-0.1,0-0.1,0c-0.5,0.1-1,0.1-1.5-0.1
		c-0.5-0.3-0.9-0.6-1.3-1c-0.3-0.2-0.5-0.5-0.7-0.8c-0.2-0.3-0.4-0.6-0.6-0.8c-0.3-0.4-0.6-0.9-0.8-1.3c-0.2-0.4-0.5-0.9-0.7-1.4
		c-0.4-0.6-0.7-1.2-0.9-1.9c-0.3-0.6-0.5-1.3-0.8-1.9c-0.2-0.6-0.4-1.2-0.6-1.8c-0.2-0.6-0.4-1.2-0.6-1.8l-0.6-2l-0.4-1.7
		c-0.1-0.5-0.3-1.1-0.4-1.6c-0.1-0.5-0.2-1.1-0.3-1.6c-0.1-0.4-0.2-0.8-0.2-1.2c-0.1-0.4-0.1-0.8-0.2-1.2c0-0.1,0-0.3-0.1-0.7
		c0,0.1,0,0.2,0,0.2c0,0.1,0,0.1,0,0.2l-0.2,1.6l-0.1,1.1c0,0.2-0.1,0.5-0.1,0.9l-0.3,2.5v0.1c0,0.3,0,0.6,0,0.9
		c0,0.3-0.1,0.6-0.1,0.9c0,0.4,0,0.7,0,1c0,0.3,0,0.7,0,1c0,0.2-0.1,0.4-0.1,0.7c0,0.6,0,1.2,0,1.9c0,0.6,0,1.3,0,1.9
		c0,0.5,0.1,0.9,0.1,1.4c0,0.4,0,0.9,0,1.4l0.1,1.5l0.2,2.2c0,0.2,0,0.3,0,0.5c0,0.2,0,0.3,0,0.6l0.1,0.7c0.1,0.5,0.2,0.9,0.2,1.4
		c0,0.4,0.1,0.9,0.2,1.4l0.4,1.4c0,0.2,0,0.3,0.1,0.4v-0.1c0,0,0,0.1,0,0.1c0,0,0,0.1,0,0.1c0.2,0.3,0.3,0.4,0.3,0.5
		C47.9,38,48.1,38.1,48.3,38.2z"/>
	<path shape-rendering="optimizeQuality" class="st1" d="M67.2,26c0.4-0.3,0.7-0.5,1.1-0.7c0.2-0.1,0.4-0.2,0.6-0.3c0.2-0.1,0.4-0.2,0.7-0.3v0.1L69.2,25
		c-0.5,0.3-1,0.6-1.6,1c-0.5,0.4-1,0.8-1.6,1.2H66c0,0.3-0.1,0.6-0.1,0.9c0,0.3,0,0.6,0,0.9l-0.1,1.5c0,0.4,0,0.7,0,1.1
		c0,0.4-0.1,0.7-0.1,1.1c0,0.4-0.1,0.7-0.1,1.1c0,0.4-0.1,0.7-0.2,1.1c-0.1,0.5-0.2,1-0.3,1.4c-0.1,0.5-0.2,0.9-0.3,1.4
		c-0.3,0.9-0.6,1.7-0.9,2.6c-0.3,0.9-0.7,1.7-1.1,2.5c-0.1,0.3-0.3,0.5-0.4,0.8c-0.2,0.3-0.3,0.5-0.6,0.8c-0.2,0.2-0.4,0.4-0.6,0.6
		c-0.2,0.2-0.4,0.4-0.6,0.6c-0.4,0.3-0.8,0.5-1.5,0.7c-1.1,0.1-2.1-0.4-2.8-1.3c-0.4-0.5-0.6-1.1-0.7-1.9c0-0.8,0.1-1.6,0.2-2.4
		c0.4-1.5,1-2.8,1.7-4.2c0.4-0.7,0.9-1.5,1.4-2.1c0.5-0.7,1-1.3,1.5-1.9c0.5-0.5,1-1,1.4-1.5s0.9-1,1.4-1.5c0.4-0.3,0.7-0.5,1-0.8
		c0.3-0.3,0.6-0.6,0.9-0.9l0.1-0.1c0.1-0.2,0.1-0.4,0.1-0.6c0-0.2,0-0.3,0-0.6c0-0.2,0-0.5,0-0.7c0-0.2,0-0.5-0.1-0.7
		c0-0.2,0.1-0.4,0-0.6c0-0.2,0-0.3,0-0.6c0,0,0-0.1,0-0.1c0,0,0-0.1,0-0.1c-0.1,0-0.2,0-0.3,0.1c-0.1,0.2-0.2,0.3-0.3,0.5
		c-0.1,0.2-0.2,0.3-0.4,0.5l-0.7,0.9c-0.2,0.2-0.3,0.3-0.3,0.4c-0.2,0.2-0.3,0.3-0.4,0.3c-0.4,0-0.6-0.1-0.7-0.4
		c-0.1-0.3-0.2-0.6-0.1-1c0,0,0.1,0,0.1,0c0,0,0.1,0,0.1,0c0.2,0.1,0.3,0.2,0.5,0.3c-0.1,0-0.2,0-0.3-0.1c0,0.3,0,0.6,0.1,0.9
		c0,0,0.1,0,0.2-0.1c0.1-0.1,0.2-0.2,0.2-0.2c0.1-0.1,0.1-0.1,0.2-0.2c0.1-0.2,0.3-0.4,0.4-0.5c0.1-0.1,0.3-0.3,0.4-0.5l0.6-0.9
		l0.3-0.3c0.2,0,0.3,0,0.5,0c0,0,0.1,0.1,0.2,0.3c0.1,0.4,0.1,0.8,0.1,1c0,0.4,0,0.7,0,1.1c0,0.4,0,0.7,0.1,1.1v0.2L67.2,26z
		 M65.2,28l-2.8,2.9c-0.7,0.7-1.3,1.5-1.9,2.3c-0.6,0.8-1.2,1.6-1.6,2.5c-0.4,0.6-0.7,1.2-1,1.8c-0.3,0.6-0.6,1.2-0.8,1.8
		c-0.2,0.5-0.4,1.1-0.5,1.6c-0.1,0.5-0.2,1.1-0.2,1.6c0,0.5,0.1,1,0.3,1.3c0.1,0.5,0.4,0.9,0.7,1.3c0.4,0.4,0.8,0.6,1.3,0.7
		s1,0,1.5-0.2l0.4-0.3c0.5-0.4,0.9-0.8,1.3-1.3c0.2-0.4,0.4-0.8,0.7-1.2c0.2-0.4,0.4-0.9,0.6-1.4c0.7-1.8,1.4-3.7,1.8-5.8l0.3-2.3
		c0-0.3,0.1-0.6,0.1-0.9c0-0.3,0-0.5,0-0.9c0.1-0.6,0.2-1.2,0.2-1.8c0-0.6,0.1-1.2,0.1-1.8l-0.1-0.1L65.2,28z"/>
	<path shape-rendering="optimizeQuality" class="st1" d="M74.7,24.2c-0.3,0-0.5,0-0.8,0c-0.2,0-0.5-0.1-0.8-0.1l-0.1,0.1c-0.1,0-0.1,0.2-0.1,0.3c0,0.1,0,0.3,0,0.4
		c0,0.2,0,0.3-0.1,0.4c0,0.2,0,0.3-0.1,0.4l-0.2,0.2c-0.2,0-0.4,0-0.6-0.3L71.7,25c0-0.1-0.1-0.2-0.1-0.2c0,0,0-0.1-0.1-0.2
		l-0.1,0.2c0,0.3-0.1,0.5-0.2,0.8c-0.1,0.2-0.1,0.5-0.2,0.8l-0.5,2.3c0,0.2-0.1,0.4-0.1,0.5c0,0.1-0.1,0.2-0.2,0.4
		c-0.4,0.1-0.6,0.1-0.7-0.1c-0.1-0.1-0.1-0.3-0.1-0.4c0-0.1,0-0.2-0.1-0.3c0-0.4,0-0.9,0-1.3c0-0.4,0-0.8,0.1-1.3c0-0.5,0-1,0-1.5
		c0-0.5,0-1,0-1.5l0.1-1.5c0.1-0.1,0.2-0.1,0.2-0.1c0,0,0.2,0,0.4,0.1c0.1,0.2,0.2,0.4,0.4,0.5c0,0.1,0,0.1-0.1,0.1h-0.3
		c0,0.1-0.1,0.2-0.1,0.4v2.6c0,0.4,0,0.7,0,1.1c0,0.4,0,0.7,0,1.1v0.3c0.1,0,0.1-0.1,0.1-0.1c0,0,0-0.1,0.1-0.1l0.4-1.3l0.6-1.6
		l0.2-0.3c0-0.1,0-0.1,0.1-0.1c0.2,0.1,0.3,0.3,0.5,0.5l0.3,0.7l0.1,0.3v0.1c0.1,0,0.1,0,0.1-0.1c0-0.1,0-0.2,0-0.3
		c0-0.1,0-0.2,0-0.3c0-0.1,0.1-0.3,0.1-0.5c0,0,0.1-0.1,0.2-0.3h0.3c0.3,0,0.5,0.1,0.8,0.1C74.2,24,74.5,24,74.7,24.2
		C74.7,24.1,74.7,24.1,74.7,24.2z"/>
	<path shape-rendering="optimizeQuality" class="st1" d="M87.8,25.9l1.5-0.9l0.3-0.2c0,0,0,0.1,0.1,0.1c0,0,0,0.1-0.1,0.1c-0.3,0.3-0.6,0.6-0.9,0.7
		c-0.2,0.2-0.4,0.3-0.7,0.4c-0.2,0.1-0.4,0.2-0.7,0.4c0,0-0.1,0-0.1,0c0,0,0,0-0.1,0c-0.8,1.9-1.7,3.7-2.8,5.3
		c-0.4,0.5-0.7,1-1.1,1.4c-0.4,0.5-0.7,0.9-1.2,1.3c-0.4,0.4-0.8,0.7-1.3,1c-0.6,0.4-1.2,0.6-1.8,0.6c-0.8,0.1-1.6-0.1-2.2-0.7
		c-0.5-0.4-0.9-0.9-1.1-1.5c-0.2-0.4-0.3-0.7-0.4-1c-0.1-0.3-0.2-0.7-0.3-1c-0.2-0.9-0.4-1.8-0.4-2.8c-0.1-0.6-0.1-1.2-0.1-1.9
		c0-0.6,0-1.3,0-1.9l0.2-2.4l0.4-2.7c0.1-1.2,0.3-2.3,0.6-3.4c0.4-1.8,1-3.7,1.6-5.6c0.2-0.7,0.5-1.3,0.7-2c0.2-0.7,0.5-1.3,0.8-1.9
		c0.4-1,0.9-1.9,1.5-2.6C80.8,4.4,81,4.2,81.1,4c0.1-0.1,0.2-0.2,0.3-0.2c0.1,0,0.2-0.1,0.3-0.2c0.3,0,0.5,0,0.8,0
		c0.2,0,0.4,0.2,0.5,0.5l0.2,0.6c0,0.6,0,1.2,0,1.8c0,0.2,0,0.4,0,0.6c0,0.2,0,0.4,0,0.6l-0.3,2c-0.1,1-0.3,1.9-0.5,2.9
		c-0.2,0.9-0.4,1.9-0.6,2.8l-1,4.2c-0.2,0.9-0.4,1.8-0.7,2.7c-0.2,0.9-0.5,1.8-0.7,2.7c0,0.1,0,0.2,0,0.2c0,0.1,0,0.1,0,0.2
		l-0.1,0.3H79c0,0,0-0.1,0-0.1c0,0,0-0.1,0-0.1c0-0.2,0-0.5,0.1-1l0.8-3.8c0.3-1.2,0.5-2.4,0.8-3.5c0.3-1.2,0.5-2.3,0.8-3.5
		c0.2-0.7,0.3-1.3,0.5-2c0.1-0.7,0.2-1.4,0.3-2c0.1-0.4,0.2-0.9,0.2-1.3c0-0.4,0.1-0.8,0.1-1.3c0-0.3,0.1-0.5,0.1-0.8
		c0-0.3,0-0.6,0-0.9l-0.1-0.9c0-0.3-0.1-0.5-0.2-0.6c-0.1-0.2-0.1-0.2-0.1-0.2c-0.1,0-0.2,0-0.3,0.1c-0.3,0.2-0.5,0.4-0.6,0.6
		c-0.5,0.6-0.9,1.3-1.4,2.1c-0.3,0.6-0.6,1.2-0.8,1.7c-0.2,0.6-0.5,1.2-0.7,1.8c-0.4,0.9-0.7,1.8-0.9,2.8c-0.3,0.9-0.5,1.8-0.7,2.8
		c-0.2,0.7-0.3,1.5-0.5,2.3s-0.3,1.6-0.4,2.4l-0.3,2l-0.2,2c0,0.5-0.1,0.9-0.1,1.4c0,0.4,0,0.9,0,1.4c0,0.4,0,0.7,0,1s0,0.7,0.1,1
		l0.2,1.5c0.1,1,0.4,1.9,0.7,2.6c0.1,0.3,0.2,0.5,0.3,0.7c0.1,0.2,0.3,0.4,0.4,0.7c0.2,0.2,0.4,0.4,0.5,0.6c0.2,0.2,0.4,0.3,0.7,0.4
		c0.4,0.2,0.9,0.2,1.5,0.1c0.2,0,0.4-0.1,0.7-0.2c0.2-0.1,0.4-0.2,0.7-0.4c0.4-0.2,0.7-0.5,0.9-0.7c0.3-0.3,0.5-0.5,0.9-0.9
		c0.4-0.4,0.7-0.8,0.9-1.2c0.3-0.4,0.5-0.8,0.8-1.3c0.5-0.7,0.9-1.5,1.3-2.2s0.7-1.5,1.1-2.3c0-0.1,0.1-0.1,0.1-0.1c0,0,0,0,0-0.1
		c0,0,0-0.1-0.1-0.1c-0.2,0-0.4-0.2-0.5-0.5c-0.1-0.3-0.2-0.6-0.3-0.8v-0.4c0-0.6,0.2-1.2,0.7-1.8c0.2-0.2,0.3-0.3,0.4-0.3
		c0.1-0.1,0.3-0.1,0.6-0.1c0.2,0.1,0.3,0.3,0.4,0.6c0.1,0.5,0.1,1-0.1,1.4c0,0.4-0.2,0.7-0.3,1.1c0,0.1,0,0.1,0,0.2c0,0,0,0.1,0,0.2
		h0.1H87.8z M87.1,26c0-0.1,0-0.1,0.1-0.1l0.5-1.5c0-0.2,0.1-0.4,0.1-0.6c0-0.2,0-0.3,0-0.6c0-0.2,0-0.4-0.1-0.5
		c0-0.1-0.1-0.2-0.2-0.2c-0.1,0-0.2,0.1-0.2,0.2c-0.1,0.1-0.1,0.2-0.2,0.3c-0.2,0.2-0.3,0.5-0.3,0.7c0,0.3-0.1,0.6-0.2,0.9
		c0,0.4,0,0.6,0.1,0.8c0,0.1,0.1,0.2,0.1,0.2s0,0.1,0.1,0.2C86.8,26,87,26,87.1,26z"/>
	<path shape-rendering="optimizeQuality" class="st1" d="M91.2,26.3c-0.1-0.2-0.3-0.5-0.6-0.7c-0.3-0.3-0.5-0.5-0.7-0.7c0,0-0.1,0.1-0.2,0.3c-0.1,0-0.2-0.1-0.2-0.2
		l0.1-0.4c-0.1,0-0.2-0.2-0.3-0.3c-0.4-0.5-0.3-1,0.1-1.5c0.3-0.3,0.6-0.5,0.9-0.6c0.1,0,0.2,0,0.2-0.1c0.2,0,0.3,0,0.5,0.1
		c0.1,0.1,0.2,0.2,0.1,0.4c0,0.1,0,0.2-0.1,0.3c0,0.3-0.2,0.6-0.5,0.9c-0.1,0.1-0.2,0.3-0.3,0.4c-0.1,0.1-0.2,0.3-0.3,0.4
		c0,0.1,0.2,0.2,0.3,0.4l0.4,0.3l0.3,0.3c0.1,0,0.1,0.1,0.2,0.1c0,0,0.1,0.1,0.2,0.2c0.3-0.2,0.6-0.4,0.9-0.7
		c0.1-0.1,0.3-0.2,0.4-0.3c0.1-0.1,0.3-0.2,0.5-0.2l0.1,0.1c-0.6,0.3-1.1,0.8-1.6,1.4c0,0.1,0.1,0.2,0.1,0.2c0,0,0,0.1,0.1,0.1
		c0.5,0.9,0.6,2,0.3,3.2c-0.3,0.8-0.7,1.6-1.3,2.4c-0.5,0.7-1.1,1.2-1.7,1.6c-0.1,0.1-0.3,0.2-0.6,0.3c-0.2,0.1-0.3,0.1-0.4,0.1
		c-0.3,0.1-0.6,0.1-0.8-0.1c-0.2-0.2-0.4-0.4-0.5-0.7c-0.1-0.4-0.1-0.7,0.1-1c0.1-0.7,0.4-1.2,0.7-1.6c0.4-0.7,0.8-1.5,1.5-2.1
		c0.4-0.4,0.7-0.8,1-1.2c0.3-0.4,0.7-0.7,1-1.1L91.2,26.3z M87.3,34.1c0.3,0,0.6,0,0.8-0.1c0.2-0.1,0.4-0.2,0.6-0.3
		c0.2-0.1,0.3-0.2,0.5-0.4c1.3-1.1,2.2-2.5,2.6-4c0.2-0.8,0.1-1.7-0.2-2.5l-0.2-0.3L91,26.9l-1.3,1.4c-0.4,0.4-0.7,0.9-1.1,1.3
		c-0.4,0.4-0.6,0.9-0.9,1.4c-0.4,0.6-0.6,1.1-0.7,1.5c-0.1,0.2-0.1,0.5-0.1,0.9C87,33.6,87.1,33.9,87.3,34.1z M90.7,22.4
		c-0.2,0.1-0.4,0.2-0.5,0.3c-0.1,0.1-0.3,0.2-0.5,0.3c-0.4,0.5-0.4,0.9-0.1,1.3l0.1,0.1c0.2-0.3,0.4-0.6,0.6-0.9
		c0.2-0.3,0.4-0.5,0.5-0.9c0-0.1,0.1-0.1,0-0.2c0,0,0-0.1,0-0.2H90.7z"/>
	<path shape-rendering="optimizeQuality" class="st1" d="M95.2,26.7c-0.2,0.1-0.3,0.2-0.5,0.2c-0.1,0.1-0.3,0.1-0.4,0L94,26.7c-0.3-0.3-0.3-0.5,0.1-0.7
		c0,0,0.1-0.1,0.1,0c0,0,0.1,0,0.1-0.1c0.1,0.1,0.2,0.1,0.3,0.2c0.1,0,0.2,0.1,0.3,0.1c0.1,0,0.2-0.1,0.3-0.3c0-0.1,0.1-0.2,0.3-0.3
		c0.1,0,0.2,0.1,0.2,0.1c0,0,0.1,0.2,0.2,0.4c-0.3,1.1-0.6,2.4-0.8,3.6c0,0-0.1,0-0.1,0c0,0,0,0-0.1,0h-0.1c0-0.2,0-0.5,0-0.7
		c0-0.2,0-0.5,0-0.8c0-0.2,0-0.5,0.1-0.7C95.1,27.2,95.2,26.9,95.2,26.7z"/>
</g>
</svg>
